<svg width="1024" height="1024" viewBox="0 0 1024 1024" fill="none" xmlns="http://www.w3.org/2000/svg">
<path d="M189.13 492.141L368.795 313.716C381.828 301.382 400.989 297.968 417.513 305.105C434.036 312.242 444.742 328.456 444.742 346.453V534.73L603.539 319.767C615.098 304.175 635.345 297.658 653.808 303.787C672.272 309.838 684.761 327.059 684.761 346.531V562.812L782.895 480.271C791.35 471.816 802.754 467.084 814.701 467.084H1021.44C998.633 205.343 779.093 0 511.535 0C243.976 0 10.3952 218.608 0 492.141H189.13Z" fill="#F7961D"/>
<path d="M833.319 556.994L671.573 703.147C658.696 716.024 639.379 719.825 622.546 712.921C605.712 705.939 594.773 689.571 594.773 671.341V483.064L435.976 698.027C424.417 713.619 404.17 720.136 385.707 714.007C367.244 707.956 354.754 690.735 354.754 671.263V450.793L237.925 569.716C229.547 577.629 218.531 582.051 206.972 582.051H4.42188C38.6328 831.612 252.587 1023.92 511.535 1023.92C770.483 1023.92 998.633 818.579 1021.44 556.916H833.319V556.994Z" fill="#F7961D"/>
</svg>
